Coordinates
version=1
nRows=9
nColumns=24
inDegrees=yes

Units are S.I. units (second, meters, Newtons, ...)
Angles are in degrees.

endheader
time	pelvis_tilt	pelvis_list	pelvis_rotation	pelvis_tx	pelvis_ty	pelvis_tz	hip_flexion_r	hip_adduction_r	hip_rotation_r	knee_angle_r	ankle_angle_r	subtalar_angle_r	mtp_angle_r	hip_flexion_l	hip_adduction_l	hip_rotation_l	knee_angle_l	ankle_angle_l	subtalar_angle_l	mtp_angle_l	lumbar_extension	lumbar_bending	lumbar_rotation
      6.65500000	     13.35652088	      3.37408580	     -0.16677477	      2.47212398	      0.94216016	     -0.25006567	     -1.66424097	     -7.47920062	     -4.31154187	    -65.21683093	     14.10340540	      1.36124349	      0.00000000	     -9.99743115	      8.11266332	     11.95115958	    -10.84820456	     15.27309383	     -7.17981618	      0.00000000	    -27.41480956	     -5.61835571	      3.01279170
      6.66000000	     13.37751796	      3.17701126	      0.21817137	      2.47780576	      0.94274380	     -0.25054004	     -1.00395535	     -7.25937446	     -4.66209679	    -64.95969591	     14.86019142	      0.86424692	      0.00000000	    -10.56287056	      7.79812180	     12.18783816	    -10.54592099	     15.47692309	     -6.96953674	      0.00000000	    -27.49588539	     -5.18462452	      2.53026266
      6.66500000	     13.35318590	      2.93748162	      0.47430120	      2.48349771	      0.94324729	     -0.25084519	     -0.26913980	     -6.98614494	     -4.86006900	    -64.63805007	     15.53944031	      0.39523798	      0.00000000	    -11.08443068	      7.45559443	     12.29226411	    -10.20957839	     15.65705268	     -6.81362308	      0.00000000	    -27.50672274	     -4.76313280	      2.22681197
      6.67000000	     13.32822323	      2.72930636	      0.79851867	      2.48919656	      0.94371198	     -0.25118347	      0.42786378	     -6.74793050	     -5.13506287	    -64.22617441	     16.20304285	      0.02023983	      0.00000000	    -11.60275936	      7.12378982	     12.43253766	     -9.87871801	     15.84701997	     -6.58304522	      0.00000000	    -27.51782523	     -4.35351308	      1.82432689
      6.67500000	     13.31596288	      2.54426704	      1.15091469	      2.49488041	      0.94415261	     -0.25153671	      1.08622998	     -6.53908402	     -5.44303193	    -63.73190104	     16.83303360	     -0.27261789	      0.00000000	    -12.13410885	      6.80368460	     12.60067123	     -9.54117117	     15.98952078	     -6.36347254	      0.00000000	    -27.54589922	     -3.96018710	      1.37253299
      6.68000000	     13.28598434	      2.34753444	      1.46564131	      2.50055126	      0.94452119	     -0.25184008	      1.75782854	     -6.31574496	     -5.70464900	    -63.16373013	     17.43078181	     -0.49729772	      0.00000000	    -12.63947024	      6.47667156	     12.71533094	     -9.20716499	     16.15517377	     -6.15227709	      0.00000000	    -27.55120914	     -3.56792582	      0.98086300
      6.68500000	     13.25999900	      2.16433756	      1.79563795	      2.50621606	      0.94484488	     -0.25214968	      2.40111208	     -6.11052990	     -5.98251854	    -62.51545443	     17.99967404	     -0.63824714	      0.00000000	    -13.14631606	      6.15623546	     12.84004680	     -8.87318968	     16.31724549	     -5.94605514	      0.00000000	    -27.56051743	     -3.18401586	      0.55639594
      6.69000000	     13.21238109	      1.97769984	      2.09008212	      2.51185193	      0.94508465	     -0.25242856	      3.06048795	     -5.90318600	     -6.22001104	    -61.79754101	     18.55688631	     -0.71095182	      0.00000000	    -13.61881042	      5.84038291	     12.91194169	     -8.55193368	     16.49122952	     -5.74510606	      0.00000000	    -27.54719174	     -2.80850495	      0.19893835
      6.69500000	     13.16353236	      1.80979761	      2.39587205	      2.51749959	      0.94528122	     -0.25267275	      3.69479907	     -5.71345786	     -6.46475469	    -61.00095980	     19.07912842	     -0.71644212	      0.00000000	    -14.09167609	      5.53463818	     12.99351701	     -8.22347026	     16.65049441	     -5.53745690	      0.00000000	    -27.53055364	     -2.45759044	     -0.19425407
